# xmcd CD database file
#
# Track frame offsets:
#	150
#	21541
#	45567
#	60566
#	82012
#	100161
#	117720
#	137675
#	151885
#	166823
#	191117
#	205340
#
# Disc length: 3175 seconds
#
# Revision: 0
# Processed by: cddbd v1.5.1PL0 Copyright (c) Steve Scherf et al.
# Submitted via: CDex 1.51
#
DISCID=a70c650c
DTITLE=Lexie Blues Band - This n' that
DYEAR=2004
DGENRE=Blues
TTITLE0=Love and happiness
TTITLE1=What a mean feeling
TTITLE2=Baby, let me hold your hand
TTITLE3=I got my way
TTITLE4=Rock me baby
TTITLE5=So called friend
TTITLE6=Call me now
TTITLE7=Give and take
TTITLE8=Let's give it a try
TTITLE9=Fine and mellow
TTITLE10=I got to dance
TTITLE11=Pain
EXTD=YEAR: 2004
EXTT0=
EXTT1=
EXTT2=
EXTT3=
EXTT4=
EXTT5=
EXTT6=
EXTT7=
EXTT8=
EXTT9=
EXTT10=
EXTT11=
PLAYORDER=
